<svg height="512pt" viewBox="0 -13 512 511" width="512pt" xmlns="http://www.w3.org/2000/svg"><path d="m512 235.464844c0-44.542969-11.59375-87.71875-32.984375-125.660156-.269531-.597657-.597656-1.164063-.972656-1.6875-12.15625-21.1875-27.382813-40.710938-45.378907-57.875 4.628907-5.28125 7.441407-12.1875 7.441407-19.742188 0-16.542969-13.457031-30-30-30h-208.210938c-5.523437 0-10 4.476562-10 10s4.476563 10 10 10h208.210938c5.515625 0 10 4.484375 10 10s-4.484375 10-10 10h-308.210938c-5.515625 0-10-4.488281-10-10 0-5.515625 4.484375-10 10-10h20c5.519531 0 10-4.476562 10-10s-4.480469-10-10-10h-20c-16.542969 0-30 13.457031-30 30 0 7.554688 2.8125 14.460938 7.441407 19.742188-16.402344 15.644531-30.5 33.246093-42.074219 52.28125-.363281.488281-.679688 1.007812-.949219 1.550781-23.515625 39.292969-36.3125 84.589843-36.3125 131.390625 0 83.007812 39.867188 160.148437 107.117188 208.261718-1.292969 3.347657-2.011719 6.980469-2.011719 10.78125 0 16.539063 13.457031 29.996094 30 29.996094h241.789062c16.539063 0 30-13.457031 30-30 0-3.796875-.71875-7.429687-2.011719-10.78125 67.25-48.109375 107.117188-125.25 107.117188-208.257812zm-414.035156-175.230469c1.289062.167969 2.597656.265625 3.929687.265625h308.210938c1.332031 0 2.640625-.097656 3.925781-.265625 15.210938 13.722656 28.417969 29.214844 39.425781 46.03125-55.003906 6.636719-135.183593.453125-212.957031-5.546875-67.40625-5.203125-131.707031-10.160156-173.96875-5.917969 9.238281-12.433593 19.746094-24.019531 31.433594-34.566406zm293.835937 368.253906c-4.394531-2.527343-9.484375-3.980469-14.90625-3.980469h-20.003906c-5.519531 0-10 4.476563-10 10 0 5.519532 4.480469 10 10 10h20.003906c2.71875 0 5.1875 1.09375 6.992188 2.863282.058593.070312.125.125.1875.191406 1.742187 1.800781 2.820312 4.25 2.820312 6.945312 0 5.511719-4.488281 10-10 10h-241.789062c-5.511719 0-10-4.488281-10-10 0-2.695312 1.074219-5.136718 2.8125-6.9375.0625-.066406.132812-.128906.195312-.199218 1.804688-1.769532 4.273438-2.863282 6.992188-2.863282h141.785156c5.523437 0 10-4.480468 10-10 0-5.523437-4.476563-10-10-10h-141.785156c-5.421875 0-10.511719 1.453126-14.90625 3.980469-62.875-44.28125-100.199219-115.910156-100.199219-193.023437 0-42.011719 11.195312-82.703125 31.800781-118.257813 36.953125-8.140625 109.988281-2.503906 187.160157 3.449219 54.265624 4.191406 109.675781 8.46875 157.585937 8.46875 25.136719 0 48.207031-1.183594 67.957031-4.171875 17.855469 33.664063 27.496094 71.523437 27.496094 110.511719 0 77.113281-37.324219 148.742187-100.199219 193.023437zm0 0"/><path d="m264.914062 216.980469c-17.753906 0-34.9375 4.726562-49.96875 13.257812-.707031-.773437-1.429687-1.53125-2.171874-2.269531-18.085938-18.089844-44.707032-25.214844-69.457032-18.605469-8.203125 2.183594-14.554687 8.652344-16.601562 16.894531-4.984375 19.109376-1.761719 39.632813 8.582031 56.289063-10.34375 16.65625-13.5625 37.1875-8.582031 56.292969 2.046875 8.238281 8.398437 14.707031 16.597656 16.890625 6.109375 1.632812 12.332031 2.429687 18.511719 2.429687 18.863281-.003906 37.328125-7.40625 50.949219-21.027344.738281-.738281 1.460937-1.496093 2.167968-2.269531 15.027344 8.527344 32.203125 13.253907 49.972656 13.253907 35.855469 0 69.402344-19.257813 87.566407-50.261719 5.582031-9.253907 5.6875-20.796875.277343-30.140625-18.105468-31.292969-51.765624-50.734375-87.84375-50.734375zm-116.449218 119.425781c-1.386719-.367188-2.117188-1.480469-2.339844-2.394531-.015625-.054688-.027344-.109375-.042969-.164063-4.078125-15.570312-.609375-32.453125 9.277344-45.160156 2.808594-3.609375 2.808594-8.667969-.003906-12.28125-9.886719-12.703125-13.351563-29.585938-9.273438-45.15625.015625-.054688.027344-.109375.042969-.164062.222656-.914063.953125-2.027344 2.347656-2.398438 17.789063-4.75 36.898438.316406 49.949219 13.21875-8.25 7.152344-15.40625 15.667969-21.066406 25.328125-5.582031 9.253906-5.691407 20.800781-.28125 30.148437 5.707031 9.859376 12.960937 18.542969 21.34375 25.8125-13.050781 12.898438-32.15625 17.96875-49.953125 13.210938zm186.871094-48.855469c-.027344.050781-.054688.097657-.082032.144531-14.582031 24.933594-41.535156 40.421876-70.339844 40.421876-16.847656 0-33.03125-5.292969-46.492187-14.660157 0-.003906-.003906-.003906-.003906-.003906-.003907 0-.003907-.003906-.003907-.003906-9.675781-6.734375-17.949218-15.574219-24.03125-26.085938-1.761718-3.042969-1.71875-6.804687.109376-9.816406.03125-.050781.058593-.097656.085937-.144531 14.582031-24.933594 41.53125-40.421875 70.335937-40.421875 28.964844 0 55.988282 15.617187 70.53125 40.753906 1.765626 3.042969 1.722657 6.804687-.109374 9.816406zm0 0"/><path d="m391.894531 230.929688c-5.523437 0-10 4.480468-10 10v.007812c0 5.523438 4.476563 9.996094 10 9.996094 5.519531 0 10-4.480469 10-10.003906 0-5.523438-4.480469-10-10-10zm0 0"/><path d="m353.394531 166.429688c-5.523437 0-10 4.480468-10 10v.007812c0 5.523438 4.476563 9.996094 10 9.996094 5.519531 0 10-4.480469 10-10.003906 0-5.523438-4.480469-10-10-10zm0 0"/><path d="m290.394531 260.496094c-5.523437 0-10 4.480468-10 10v.011718c0 5.519532 4.476563 9.996094 10 9.996094 5.519531 0 10-4.484375 10-10.007812 0-5.519532-4.480469-10-10-10zm0 0"/><path d="m161.898438 20.5c5.519531 0 10-4.476562 10-10s-4.480469-10-10-10h-.007813c-5.523437 0-9.996094 4.476562-9.996094 10s4.480469 10 10.003907 10zm0 0"/><path d="m316.894531 424.507812h-.003906c-5.523437 0-9.996094 4.476563-9.996094 10 0 5.519532 4.476563 10 10 10 5.523438 0 10-4.480468 10-10 0-5.523437-4.476562-10-10-10zm0 0"/></svg>