<?xml version="1.0"?>
<svg xmlns="http://www.w3.org/2000/svg" xmlns:xlink="http://www.w3.org/1999/xlink" version="1.1" id="Capa_1" x="0px" y="0px" width="512px" height="512px" viewBox="0 0 47.407 47.407" style="enable-background:new 0 0 47.407 47.407;" xml:space="preserve" class=""><g><g>
	<g>
		<path d="M47.074,4.459C42.953,0.338,35.207,0.338,27.86,4.116c-0.266,3.601,1.084,7.454,4.011,10.381    c2.299,2.298,5.169,3.619,8.041,3.958C45.502,11.708,48.442,5.826,47.074,4.459z M39.309,7.06    c-0.633,0.633-1.658,0.633-2.29,0.002c-0.634-0.633-0.634-1.659,0-2.292c0.632-0.633,1.657-0.633,2.291,0    C39.941,5.403,39.941,6.429,39.309,7.06z" data-original="#000000" class="active-path" data-old_color="##9094F" fill="#9094FF"/>
		<path d="M25.196,5.666c-0.542,0.354-1.079,0.729-1.61,1.125l-1.26-0.664c-1.099-0.575-2.45-0.376-3.328,0.501l-8.862,8.862    c-0.639,0.639-0.928,1.547-0.792,2.44c0.137,0.891,0.692,1.668,1.491,2.087l2.01,1.053c-2.014,4.696-3.107,9.297-3.405,12.211    l-8.75,3.01c-0.395,0.135-0.667,0.495-0.689,0.911c-0.022,0.417,0.209,0.806,0.586,0.982l3.816,1.797    c0.747,0.352,1.346,0.952,1.698,1.698l1.797,3.815c0.177,0.376,0.566,0.608,0.981,0.586c0.417-0.022,0.777-0.296,0.913-0.688    l3.013-8.764c4.108-0.677,11.234-3.817,17.423-8.546l0.693,2.14c0.125,0.387,0.439,0.677,0.835,0.772    c0.396,0.096,0.809-0.025,1.098-0.312l0.741-0.742c0.57-0.571,0.921-1.327,0.977-2.133l0.262-3.762    c1.081-1.089,2.106-2.179,3.074-3.26c-2.855-0.662-5.621-2.139-7.904-4.422C26.981,13.339,25.364,9.469,25.196,5.666z" data-original="#000000" class="active-path" data-old_color="##9094F" fill="#9094FF"/>
	</g>
</g></g> </svg>
